PathFileType	4	(X/Y/Z)	Walk4.trc
DataRate	CameraRate	NumFrames	NumMarkers	Units	OrigDataRate	OrigDataStartFrame	OrigNumFrames
200.000000	200.000000	5	61	mm	200.000000	276	476
Frame#	Times		LFHD		RFHD		CLAV		LASI		RASI		RACR1		RUA1		RWRU		RCAR		LACR1		LUA1		LWRU		LCAR		RTH3		RTB1		LTH1		LTH2		LTH4		LLFC		LTB1		LTB2		LTB4		LTH3		LFA1		RTH2		LToe		LTB3		STRN		RTB4		LBHD		RWRR		RTB3		RMT5		RFA1		RMFC		RToe		RTH4		RTH1		RLFC		RMT1		RTB2		LElbow		RMMAL		LWRR		LMFC		T10		RElbow		LPSI		LMT1		RBack		LCAL		RBHD		LMMAL		RPSI		RElbowM		RLMAL		RCAL		C7		LMT5		LElbowM		LLMAL
			X1	Y1	Z1	X2	Y2	Z2	X3	Y3	Z3	X4	Y4	Z4	X5	Y5	Z5	X6	Y6	Z6	X7	Y7	Z7	X8	Y8	Z8	X9	Y9	Z9	X10	Y10	Z10	X11	Y11	Z11	X12	Y12	Z12	X13	Y13	Z13	X14	Y14	Z14	X15	Y15	Z15	X16	Y16	Z16	X17	Y17	Z17	X18	Y18	Z18	X19	Y19	Z19	X20	Y20	Z20	X21	Y21	Z21	X22	Y22	Z22	X23	Y23	Z23	X24	Y24	Z24	X25	Y25	Z25	X26	Y26	Z26	X27	Y27	Z27	X28	Y28	Z28	X29	Y29	Z29	X30	Y30	Z30	X31	Y31	Z31	X32	Y32	Z32	X33	Y33	Z33	X34	Y34	Z34	X35	Y35	Z35	X36	Y36	Z36	X37	Y37	Z37	X38	Y38	Z38	X39	Y39	Z39	X40	Y40	Z40	X41	Y41	Z41	X42	Y42	Z42	X43	Y43	Z43	X44	Y44	Z44	X45	Y45	Z45	X46	Y46	Z46	X47	Y47	Z47	X48	Y48	Z48	X49	Y49	Z49	X50	Y50	Z50	X51	Y51	Z51	X52	Y52	Z52	X53	Y53	Z53	X54	Y54	Z54	X55	Y55	Z55	X56	Y56	Z56	X57	Y57	Z57	X58	Y58	Z58	X59	Y59	Z59	X60	Y60	Z60	X61	Y61	Z61

276	1.38	150.08	1592.8	-46.414	147.01	1594	53.222	114.56	1318.9	4.4827	87.057	907.68	-105.66	93.738	920.79	142.72	39.654	1353.3	168.8	20.377	1184.6	223.73	49.964	773.56	272.98	18.644	712.03	321.59	46.311	1370.4	-146.42	49.69	1202.3	-219.64	272.68	903.96	-234.78	304.55	838.4	-263.73	156.52	607.35	180.64	243.56	369.92	127.84	5.2585	743.31	-165.6	34.179	653.23	-124.88	-20.116	662.26	-148.07	-89.059	446.98	-102.72	-74.795	345.94	-31.744	-116.41	261.75	-81.9	-103.73	265.23	-22.058	-42.786	582.67	-127.8	161.94	950.85	-267.25	166.4	712.04	186.9	-14.339	24.677	-0.94107	-125.82	184.27	-11.679	137.06	1185	13.46	237.78	283.87	122.65	7.8139	1529	-72.301	-12.862	778.32	301.85	231.59	199.28	114.57	282.32	53.157	143.29	11.121	897.59	292.58	199.61	468.67	31.701	361.02	82.318	104.85	118.63	680.35	201.8	79.923	755.03	224.74	216.78	476.84	155.05	318.49	72.289	67.556	192.16	284.97	163.39	53.203	1047.8	-258.91	195.27	108.77	49.832	225.51	853.95	-245.07	-118.3	450.64	28.412	-72.979	1207.2	3.5942	-6.8863	1022.4	255.27	-83.376	968.93	-26.802	-71.924	29.652	27.666	-73.701	1292.4	72.762	-261.52	64.761	-4.7839	5.8933	1536.5	70.592	-186.9	104.44	31.58	-78.775	961.97	73.272	-23.545	1014.3	179.28	177.83	88.022	129.75	132.13	56.772	81.39	0.84535	1418	0.51735	-103.59	24.54	-53.768	33.202	1019.6	-192.21	-202.69	83.194	-46.589
277	1.385	158.01	1591.9	-46.74	154.87	1593.2	52.891	122.68	1317.9	4.3025	94.344	906.67	-105.87	102.45	919.66	142.68	47.661	1352.4	168.54	27.437	1184	223.79	55.085	772.84	274.12	23.239	711.47	322.57	54.608	1369.6	-146.52	59.279	1201.7	-219.82	285.48	907.02	-233.34	318.82	842.01	-261.93	164.19	605.94	180.84	255.74	370.69	127.67	10.798	743.07	-165.72	39.115	652.65	-125.45	-15.163	662.17	-148.3	-85.779	447.36	-102.86	-72.084	346.01	-32.053	-114.55	262.25	-82.194	-101.69	265.54	-22.398	-38.434	582.77	-127.99	174.26	952	-266.71	174.39	710.55	187.15	-14.276	24.602	-0.87162	-124.41	184.73	-12.116	145.11	1183.8	13.439	253.33	284.44	122.42	15.925	1527.8	-72.697	-7.8081	777.98	302.74	250.52	199.64	114.29	307.15	55.162	142.43	16.909	897.13	293.28	206.73	467.27	31.868	384.52	87.165	103.43	126.54	679.03	202.06	88.168	753.81	225.15	225.29	476.08	155.06	342.19	75.717	66.514	207.94	283.66	163.42	64.091	1047.3	-259.35	217.5	107.86	49.552	239.26	856.16	-244.05	-114.33	451.07	28.389	-65.074	1206.3	3.5666	-0.25973	1021.9	255.52	-75.701	967.88	-25.61	-71.885	29.668	27.589	-65.634	1291.5	72.507	-261.14	66.351	-4.9782	13.868	1535.3	70.178	-186.12	105.4	31.312	-70.531	960.86	74.358	-16.596	1013.5	179.58	201.25	86.215	129.53	156.42	53.379	81.28	9.011	1417.1	0.2032	-103.58	24.531	-53.859	43.689	1018.7	-192.83	-202.21	84.306	-46.819
278	1.39	165.95	1591	-47.049	162.74	1592.4	52.575	130.83	1316.8	4.1294	101.67	905.65	-106.09	111.23	918.53	142.64	55.717	1351.5	168.3	34.583	1183.3	223.87	60.334	772.13	275.27	27.983	710.91	323.57	62.907	1368.8	-146.6	68.866	1201	-219.96	298.05	909.93	-231.93	332.77	845.46	-260.15	171.7	604.38	181.21	267.66	371.43	127.53	16.436	742.81	-165.82	44.174	652.08	-126.03	-10.084	662.07	-148.52	-82.31	447.73	-102.99	-69.228	346.06	-32.335	-112.58	262.76	-82.473	-99.538	265.84	-22.718	-33.936	582.86	-128.17	186.41	953.08	-266.17	182.32	708.89	187.35	-14.211	24.528	-0.79819	-122.92	185.18	-12.54	153.19	1182.6	13.407	268.55	285.1	122.19	24.051	1526.5	-73.071	-2.6228	777.64	303.65	269.03	200.21	114.01	331.37	57.466	141.49	22.803	896.66	293.99	213.7	465.65	32.021	407.35	92.212	101.91	134.39	677.61	202.38	96.425	752.56	225.53	233.64	475.19	155.09	365.24	79.391	65.39	223.41	282.5	163.42	74.914	1046.8	-259.75	239.26	107.3	49.22	252.76	858.29	-243.01	-110.16	451.46	28.384	-57.136	1205.4	3.5639	6.4429	1021.4	255.81	-67.979	966.78	-24.381	-71.849	29.677	27.52	-57.54	1290.5	72.284	-260.72	68.007	-5.1962	21.864	1534.1	69.787	-185.3	106.4	31.035	-62.226	959.73	75.474	-9.6001	1012.8	179.92	224.18	84.818	129.26	180.26	50.445	81.102	17.196	1416.1	-0.088999	-103.56	24.53	-53.951	54.144	1017.8	-193.38	-201.68	85.459	-47.068
279	1.395	173.9	1590	-47.339	170.63	1591.5	52.277	138.99	1315.7	3.9656	109.05	904.62	-106.32	120.06	917.41	142.59	63.819	1350.6	168.07	41.821	1182.6	223.95	65.713	771.41	276.44	32.878	710.35	324.6	71.204	1368	-146.66	78.444	1200.3	-220.08	310.4	912.69	-230.56	346.38	848.75	-258.42	179.11	602.67	181.74	279.32	372.13	127.41	22.192	742.55	-165.9	49.374	651.5	-126.59	-4.8613	661.95	-148.72	-78.645	448.08	-103.08	-66.224	346.08	-32.586	-110.48	263.26	-82.733	-97.268	266.13	-23.015	-29.278	582.94	-128.32	198.38	954.08	-265.61	190.21	707.09	187.52	-14.145	24.456	-0.72192	-121.36	185.65	-12.947	161.29	1181.5	13.36	283.4	285.82	121.97	32.189	1525.2	-73.421	2.6951	777.29	304.58	287.05	200.94	113.71	354.89	60.011	140.48	28.805	896.19	294.71	220.53	463.83	32.154	429.44	97.388	100.31	142.2	676.11	202.79	104.71	751.28	225.88	241.88	474.18	155.13	387.57	83.249	64.203	238.52	281.47	163.39	85.661	1046.2	-260.1	260.46	107.08	48.832	266	860.32	-241.95	-105.8	451.83	28.4	-49.166	1204.4	3.5868	13.225	1020.8	256.12	-60.204	965.63	-23.125	-71.812	29.678	27.46	-49.422	1289.6	72.094	-260.25	69.738	-5.4328	29.881	1532.9	69.421	-184.43	107.43	30.754	-53.858	958.56	76.614	-2.5571	1012.1	180.28	246.53	83.8	128.91	203.54	47.948	80.844	25.398	1415.1	-0.35676	-103.52	24.538	-54.039	64.556	1016.8	-193.85	-201.1	86.66	-47.334
280	1.4	181.86	1589.1	-47.608	178.53	1590.6	52	147.17	1314.6	3.8135	116.48	903.6	-106.56	128.94	916.3	142.53	71.962	1349.7	167.86	49.153	1181.9	224.05	71.225	770.7	277.62	37.926	709.79	325.63	79.497	1367.1	-146.68	88.009	1199.6	-220.16	322.52	915.28	-229.23	359.68	851.85	-256.73	186.43	600.84	182.45	290.71	372.78	127.31	28.087	742.28	-165.95	54.728	650.93	-127.13	0.52102	661.82	-148.89	-74.777	448.41	-103.15	-63.066	346.07	-32.804	-108.26	263.78	-82.972	-94.876	266.41	-23.29	-24.447	582.99	-128.45	210.16	955.01	-265.05	198.09	705.18	187.65	-14.078	24.384	-0.64372	-119.72	186.12	-13.332	169.42	1180.3	13.297	297.84	286.58	121.75	40.339	1523.9	-73.747	8.1471	776.92	305.52	304.52	201.79	113.41	377.6	62.728	139.42	34.919	895.7	295.45	227.27	461.83	32.26	450.71	102.61	98.662	149.99	674.54	203.28	113.04	750.01	226.2	250	473.06	155.18	409.1	87.217	62.971	253.22	280.56	163.32	96.322	1045.7	-260.41	281.02	107.13	48.383	278.96	862.24	-240.89	-101.25	452.18	28.441	-41.165	1203.5	3.6365	20.089	1020.3	256.46	-52.37	964.45	-21.847	-71.772	29.671	27.41	-41.281	1288.6	71.94	-259.74	71.55	-5.6836	37.916	1531.7	69.081	-183.51	108.49	30.47	-45.424	957.39	77.771	4.5341	1011.4	180.66	268.2	83.119	128.49	226.15	45.857	80.495	33.616	1414.1	-0.59758	-103.47	24.555	-54.12	74.916	1015.9	-194.24	-200.46	87.913	-47.612
